<svg width="483" height="483" viewBox="0 0 483 483" fill="none" xmlns="http://www.w3.org/2000/svg">
<g clip-path="url(#clip0_224_2)">
<path d="M373.35 55.5C385.817 47.8 396.083 43.2166 404.15 41.75C412.217 40.2833 421.2 41.9333 431.1 46.7L388.2 240.3L351.9 410.8C397.367 405.3 450.35 396.683 510.85 384.95C518.183 388.983 521.667 395.4 521.3 404.2C520.933 412.633 518.183 420.883 513.05 428.95L346.95 446C319.083 439.033 304.967 427.483 304.6 411.35C326.233 354.15 346.767 274.583 366.2 172.65L373.35 55.5Z" fill="white"/>
<path d="M157.4 418C149.8 418 143.4 415.4 138.2 410.2C133 405 130.4 398.6 130.4 391V47.2H8C0.800001 47.2 -5.2 44.8 -10 40C-14.8 35.2 -17.2 29.2 -17.2 22C-17.2 14.8 -14.8 8.79997 -10 3.99996C-5.2 -1.20002 0.800001 -3.80001 8 -3.80001H306.8C314 -3.80001 320 -1.20002 324.8 3.99996C330 8.79997 332.6 14.8 332.6 22C332.6 29.2 330 35.2 324.8 40C320 44.8 314 47.2 306.8 47.2H185V391C185 398.6 182.2 405 176.6 410.2C171.4 415.4 165 418 157.4 418Z" fill="white"/>
</g>
<defs>
<clipPath id="clip0_224_2">
<rect width="483" height="483" fill="white"/>
</clipPath>
</defs>
</svg>
